<svg width="300" height="300" xmlns="http://www.w3.org/2000/svg">

 <g>
  <title>background</title>
  <rect fill="none" id="canvas_background" height="402" width="582" y="-1" x="-1"/>
 </g>
 <g>
  <title>Layer 1</title>
  <path id="svg_2" fill="#4c4c4c" d="m150.52,14.524c-74.787,0 -135.41,60.627 -135.41,135.414c0,74.779 60.623,135.406 135.41,135.406c74.782,0 135.409,-60.627 135.409,-135.406c0,-74.787 -60.627,-135.414 -135.409,-135.414zm0,251.675c-64.211,0 -116.264,-52.059 -116.264,-116.262c0,-64.211 52.052,-116.261 116.264,-116.261c64.207,0 116.261,52.05 116.261,116.261c-0.001,64.204 -52.054,116.262 -116.261,116.262z"/>
  <path id="svg_3" fill="#4c4c4c" d="m255.264,149.934c0,57.852 -46.897,104.744 -104.744,104.744c-57.852,0 -104.747,-46.893 -104.747,-104.744c0,-57.851 46.895,-104.744 104.747,-104.744c57.846,-0.001 104.744,46.893 104.744,104.744z"/>
  <polygon id="svg_4" points="137.202,211.401 81.978,125.994 81.978,124.92 133.718,148.3 219.059,88.466  " fill="#FFFFFF"/>
 </g>
</svg>